#N canvas 2098 -17 1858 1037 10;
#X obj 33 18 tgl 15 0 empty empty empty 17 7 0 10 #fcfcfc #000000 #000000 0 1;
#X msg 33 43 \; pd dsp \$1;
#X obj 526 707 * -1;
#X obj 587 577 bng 15 250 50 0 empty wave1 empty 17 7 0 10 #fcfcfc #000000 #000000;
#X obj 366 764 +~;
#X obj 365 793 -~ 1;
#X msg 406 679 0;
#X obj 602 621 bng 15 250 50 0 empty wave2 empty 17 7 0 10 #fcfcfc #000000 #000000;
#X obj 616 664 bng 15 250 50 0 empty wave3 empty 17 7 0 10 #fcfcfc #000000 #000000;
#X msg 587 600 0.5;
#X obj 526 748 phasor~;
#X msg 616 687 0.875;
#X msg 602 642 0.75;
#X obj 367 691 * 1;
#X obj 587 544 loadbang;
#X obj 366 831 *~;
#X obj 365 1012 dac~;
#X obj 490 823 vsl 15 128 0 1 0 0 empty empty empty 0 -9 0 10 #fcfcfc #000000 #000000 0 1;
#X text 300 581 Frequency;
#X text 616 575 Change Duty Cycle to adjust timbre;
#X obj 436 566 mtof;
#X floatatom 436 412 5 0 0 0 - - - 0;
#X floatatom 367 581 8 0 0 0 - - - 0;
#X floatatom 368 537 5 0 0 0 - - - 0;
#X obj 589 355 select 0 1 2 3 4 5 6 7;
#X floatatom 559 506 5 0 0 0 - - - 0;
#X obj 436 521 + 0;
#X text 169 234 A major blues scale: A B C C# E F#;
#X obj 367 717 phasor~;
#X text 765 376 octave shifter;
#X text 288 537 MIDI number;
#X obj 437 816 vline~;
#X msg 437 793 0.85 100 \, 0 500 500;
#X floatatom 490 966 5 0 0 0 - - - 0;
#X obj 365 981 *~ 1;
#X msg 239 299 33;
#X msg 271 300 35;
#X msg 305 300 36;
#X msg 338 300 37;
#X msg 371 300 40;
#X msg 404 300 42;
#X msg 436 299 45;
#X obj 356 41 tgl 15 0 empty empty empty 17 7 0 10 #fcfcfc #000000 #000000 0 1;
#X obj 356 144 f;
#X obj 406 142 + 1;
#X obj 356 86 metro 500;
#X text 280 41 Start ->;
#X msg 652 300 33;
#X msg 622 300 35;
#X msg 593 300 36;
#X msg 562 299 37;
#X msg 531 299 40;
#X msg 499 299 42;
#X msg 468 299 45;
#X msg 559 414 -12;
#X msg 591 413 0;
#X msg 621 414 12;
#X msg 651 414 24;
#X msg 679 414 36;
#X msg 709 413 48;
#X msg 736 413 60;
#X msg 767 413 72;
#X obj 356 240 select 0 1 2 3 4 5 6 7 8 9 10 11 12 13 14;
#X obj 356 184 mod 14;
#X floatatom 450 71 5 0 1 0 - - - 0;
#X obj 453 37 hsl 162 19 0 1000 0 0 empty empty empty -2 -10 0 12 #fcfcfc #000000 #000000 0 1;
#X text 446 16 sets metro time (replace with 'r' object);
#X connect 0 0 1 0;
#X connect 2 0 10 0;
#X connect 3 0 6 0;
#X connect 3 0 9 0;
#X connect 4 0 5 0;
#X connect 5 0 15 0;
#X connect 6 0 28 1;
#X connect 7 0 12 0;
#X connect 7 0 6 0;
#X connect 8 0 11 0;
#X connect 8 0 6 0;
#X connect 9 0 10 1;
#X connect 10 0 4 1;
#X connect 11 0 10 1;
#X connect 12 0 10 1;
#X connect 13 0 2 0;
#X connect 13 0 28 0;
#X connect 14 0 3 0;
#X connect 15 0 34 0;
#X connect 17 0 33 0;
#X connect 20 0 22 0;
#X connect 21 0 26 0;
#X connect 22 0 13 0;
#X connect 24 0 54 0;
#X connect 24 1 55 0;
#X connect 24 2 56 0;
#X connect 24 3 57 0;
#X connect 24 4 58 0;
#X connect 24 5 59 0;
#X connect 24 6 60 0;
#X connect 24 7 61 0;
#X connect 25 0 26 1;
#X connect 26 0 20 0;
#X connect 26 0 23 0;
#X connect 26 0 32 0;
#X connect 28 0 4 0;
#X connect 31 0 15 1;
#X connect 32 0 31 0;
#X connect 33 0 34 1;
#X connect 34 0 16 0;
#X connect 34 0 16 1;
#X connect 35 0 21 0;
#X connect 36 0 21 0;
#X connect 37 0 21 0;
#X connect 38 0 21 0;
#X connect 39 0 21 0;
#X connect 40 0 21 0;
#X connect 41 0 21 0;
#X connect 42 0 45 0;
#X connect 43 0 44 0;
#X connect 43 0 63 0;
#X connect 44 0 43 1;
#X connect 45 0 43 0;
#X connect 47 0 21 0;
#X connect 48 0 21 0;
#X connect 49 0 21 0;
#X connect 50 0 21 0;
#X connect 51 0 21 0;
#X connect 52 0 21 0;
#X connect 53 0 21 0;
#X connect 54 0 25 0;
#X connect 55 0 25 0;
#X connect 56 0 25 0;
#X connect 57 0 25 0;
#X connect 58 0 25 0;
#X connect 59 0 25 0;
#X connect 60 0 25 0;
#X connect 61 0 25 0;
#X connect 62 0 35 0;
#X connect 62 1 36 0;
#X connect 62 2 37 0;
#X connect 62 3 38 0;
#X connect 62 4 39 0;
#X connect 62 5 40 0;
#X connect 62 6 41 0;
#X connect 62 7 53 0;
#X connect 62 8 52 0;
#X connect 62 9 51 0;
#X connect 62 10 50 0;
#X connect 62 11 49 0;
#X connect 62 12 48 0;
#X connect 62 13 47 0;
#X connect 63 0 62 0;
#X connect 64 0 45 1;
#X connect 65 0 64 0;
