#N canvas 1917 124 755 372 12;
#X text 177 277 creation arguments are OSC address;
#X text 179 238 set message to change OSC address;
#X text 164 48 1 Set IP Address : network address;
#X text 164 68 2 Set Ports (sending and listening);
#X text 164 87 3 Set OSC Addresses (routing osc data;
#X text 155 26 Key Settings;
#X floatatom 43 194 5 0 0 0 - - - 0;
#N canvas 840 135 623 810 oscReceive 0;
#X obj 55 184 netreceive -u -b;
#X msg 78 143 listen 0;
#X text 152 143 stop listening;
#X text 64 58 packets from network;
#X text 173 177 UDP packets \, binary output, f 13;
#X obj 45 314 print;
#X obj 45 272 oscparse;
#X text 150 114 listen on port 8000;
#X obj 177 269 oscparse;
#X obj 177 293 list trim;
#X floatatom 140 380 5 0 0 0 - - - 0;
#X text 241 267 Parse the OSC message;
#X obj 177 319 route unity;
#X obj 139 357 route trigger;
#X obj 140 407 s osctrig;
#X msg 66 115 listen 8000;
#X obj 66 84 loadbang;
#X floatatom 269 434 5 0 0 0 - - - 0;
#X floatatom 372 433 5 0 0 0 - - - 0;
#X floatatom 473 377 5 0 0 0 - - - 0;
#X text 19 431 use to start playing synth_BGmusic;
#X obj 251 376 route ballXpos;
#X obj 269 461 s xPos;
#X obj 472 354 route pointsCount;
#X obj 473 404 s points;
#X obj 363 355 route ballZpos;
#X obj 372 460 s zPos;
#X floatatom 133 528 5 0 0 0 - - - 0;
#X obj 132 505 route colwall;
#X obj 133 555 s oscwall;
#X connect 0 0 6 0;
#X connect 0 0 8 0;
#X connect 1 0 0 0;
#X connect 6 0 5 0;
#X connect 8 0 9 0;
#X connect 9 0 12 0;
#X connect 10 0 14 0;
#X connect 12 0 13 0;
#X connect 12 0 21 0;
#X connect 12 0 23 0;
#X connect 12 0 25 0;
#X connect 12 0 28 0;
#X connect 13 0 10 0;
#X connect 15 0 0 0;
#X connect 16 0 15 0;
#X connect 17 0 22 0;
#X connect 18 0 26 0;
#X connect 19 0 24 0;
#X connect 21 0 17 0;
#X connect 23 0 19 0;
#X connect 25 0 18 0;
#X connect 27 0 29 0;
#X connect 28 0 27 0;
#X restore 47 142 pd oscReceive;
#X obj 47 36 tgl 15 0 empty empty empty 17 7 0 10 #fcfcfc #000000 #000000 0 1;
#X msg 47 61 \; pd dsp \$1;
#X obj 44 278 oscformat PD message;
#X msg 76 239 set PD message;
#N canvas 727 97 450 300 oscSend 1;
#X msg 158 207 disconnect;
#X obj 61 253 netsend -u -b;
#X obj 59 55 list prepend send;
#X obj 59 80 list trim;
#X msg 150 175 connect 127.0.0.1 8001;
#X obj 59 29 r oscOut;
#X text 301 163 send to port 8001;
#X msg 147 148 connect localhost 8001;
#X obj 147 108 loadbang;
#X connect 0 0 1 0;
#X connect 2 0 3 0;
#X connect 3 0 1 0;
#X connect 4 0 1 0;
#X connect 5 0 2 0;
#X connect 7 0 1 0;
#X connect 8 0 7 0;
#X restore 47 118 pd oscSend;
#X obj 44 313 s oscOut;
#N canvas 950 0 1920 970 synth_BGmusic 1;
#X obj 28 -146 tgl 15 0 empty empty empty 17 7 0 10 #fcfcfc #000000 #000000 0 1;
#X msg 28 -121 \; pd dsp \$1;
#N canvas 1876 -28 1858 1037 oscillators 0;
#X obj 206 2 inlet;
#X obj 194 487 outlet~;
#X obj 83 349 receive oscgain1;
#X obj 224 349 receive oscgain2;
#X obj 362 349 receive oscgain3;
#X obj 55 174 +;
#X obj 74 110 receive oscpitch1;
#X obj 206 174 +;
#X obj 344 172 +;
#X floatatom 206 28 5 0 0 0 - - - 0;
#X obj 54 198 mtof;
#X obj 352 201 mtof;
#X obj 205 199 mtof;
#X floatatom 10 233 5 0 0 0 - - - 0;
#X obj 224 107 receive oscpitch2;
#X obj 361 113 receive oscpitch3;
#X obj 45 134 bng 15 250 50 0 empty empty empty 17 7 0 10 #fcfcfc #000000 #000000;
#X obj 351 141 bng 15 250 50 0 empty empty empty 17 7 0 10 #fcfcfc #000000 #000000;
#X obj 211 135 bng 15 250 50 0 empty empty empty 17 7 0 10 #fcfcfc #000000 #000000;
#X obj 60 380 *~ 1;
#X obj 602 180 +;
#X obj 602 204 mtof;
#X obj 609 149 bng 15 250 50 0 empty empty empty 17 7 0 10 #fcfcfc #000000 #000000;
#X obj 619 121 receive oscpitch4;
#X obj 620 357 receive oscgain4;
#X obj 60 234 osc~;
#X floatatom 264 177 5 0 0 0 - - - 0;
#X obj 600 398 *~ 0.5;
#X obj 352 267 *~ 2;
#X obj 352 290 -~ 1;
#X obj 352 246 phasor~;
#X obj 599 236 phasor~;
#X obj 205 239 phasor~;
#X obj 603 279 -~ 1;
#X obj 426 247 osc~;
#X obj 205 385 *~ 1;
#X obj 342 390 *~ 1;
#X connect 0 0 9 0;
#X connect 2 0 19 1;
#X connect 3 0 35 1;
#X connect 4 0 36 1;
#X connect 5 0 10 0;
#X connect 6 0 5 1;
#X connect 6 0 16 0;
#X connect 7 0 12 0;
#X connect 8 0 11 0;
#X connect 9 0 7 0;
#X connect 9 0 5 0;
#X connect 9 0 8 0;
#X connect 9 0 20 0;
#X connect 10 0 13 0;
#X connect 10 0 25 0;
#X connect 11 0 30 0;
#X connect 11 0 34 0;
#X connect 12 0 32 0;
#X connect 14 0 7 1;
#X connect 14 0 18 0;
#X connect 14 0 26 0;
#X connect 15 0 8 1;
#X connect 15 0 17 0;
#X connect 16 0 5 0;
#X connect 17 0 8 0;
#X connect 18 0 7 0;
#X connect 19 0 1 0;
#X connect 20 0 21 0;
#X connect 21 0 31 0;
#X connect 22 0 20 0;
#X connect 23 0 20 1;
#X connect 23 0 22 0;
#X connect 24 0 27 1;
#X connect 25 0 19 0;
#X connect 27 0 1 0;
#X connect 28 0 29 0;
#X connect 29 0 36 0;
#X connect 30 0 28 0;
#X connect 31 0 33 0;
#X connect 32 0 35 0;
#X connect 33 0 27 0;
#X connect 34 0 36 0;
#X connect 35 0 1 0;
#X connect 36 0 1 0;
#X restore 532 405 pd oscillators;
#X obj 735 568 hsl 128 15 0 1 0 0 oscgain2 oscgain2 Osc_Gain2 -2 -8 0 10 #fcfcfc #000000 #000000 0 1;
#X obj 735 509 hsl 128 15 0 1 0 0 oscgain1 oscgain1 Osc_Gain1 -2 -8 0 10 #fcfcfc #000000 #000000 0 1;
#X obj 545 1998 dac~;
#X obj 734 621 hsl 128 15 0 1 0 0 oscgain3 oscgain3 Osc_Gain3 -2 -8 0 10 #fcfcfc #000000 #000000 0 1;
#X obj 544 827 hsl 128 15 0 1 0 0 distortionWetDry distortionWetDry Distortion:_Dry_---_Wet -2 -8 0 10 #fcfcfc #000000 #000000 0 1;
#N canvas 2013 -36 1858 1037 distortion 0;
#X obj 376 286 inlet~;
#X obj 435 668 outlet~;
#X obj 462 420 expr~ tanh($v1);
#X floatatom 463 341 5 0 0 0 - - - 0;
#X obj 462 396 *~;
#X text 504 326 Distortion Amount;
#X obj 474 303 receive distortionAmnt;
#X obj 309 498 expr 1 - $f1;
#X obj 258 554 *~;
#X floatatom 298 527 5 0 0 0 - - - 0;
#X text 335 530 "dry" signal;
#X obj 528 538 *~;
#X floatatom 555 511 5 0 0 0 - - - 0;
#X text 563 539 wet;
#X floatatom 678 428 5 0 0 0 - - - 0;
#X obj 677 401 receive distortionWetDry;
#X obj 621 376 loadbang;
#X msg 621 406 0;
#X obj 655 145 * -0.5;
#X obj 656 168 + 0.5;
#X obj 585 226 * 6;
#X text 499 227 range 3 - 0;
#X text 713 155 range 0.5 - 0;
#X obj 654 120 r zPos;
#X connect 0 0 4 0;
#X connect 0 0 8 0;
#X connect 2 0 11 0;
#X connect 3 0 4 1;
#X connect 4 0 2 0;
#X connect 6 0 3 0;
#X connect 7 0 9 0;
#X connect 8 0 1 0;
#X connect 9 0 8 1;
#X connect 11 0 1 0;
#X connect 12 0 11 1;
#X connect 14 0 7 0;
#X connect 14 0 12 0;
#X connect 15 0 14 0;
#X connect 16 0 17 0;
#X connect 17 0 14 0;
#X connect 18 0 19 0;
#X connect 19 0 14 0;
#X connect 19 0 20 0;
#X connect 20 0 3 0;
#X connect 23 0 18 0;
#X restore 531 732 pd distortion;
#X obj 545 789 hsl 128 15 0.5 6 0 0 distortionAmnt distortionAmnt Distortion_Amount -2 -8 0 10 #fcfcfc #000000 #000000 0 1;
#N canvas 2170 -23 1858 1037 filterbank 0;
#X obj 194 447 *~;
#X floatatom 209 419 5 0 0 0 - - - 0;
#X floatatom 384 152 5 0 0 0 - - - 0;
#X floatatom 245 142 5 0 0 0 - - - 0;
#X floatatom 586 148 5 0 0 0 - - - 0;
#X obj 363 456 *~;
#X floatatom 380 432 5 0 0 0 - - - 0;
#X obj 540 506 *~;
#X floatatom 557 482 5 0 0 0 - - - 0;
#X obj 360 71 inlet~;
#X obj 89 657 outlet~;
#X obj 247 113 receive lopFreq;
#X obj 243 388 receive lopGain;
#X obj 385 115 receive bpFreq;
#X obj 400 402 receive bpGain;
#X obj 586 122 receive hpFreq;
#X obj 605 461 receive hpGain;
#X obj 195 172 lop~ 50;
#X obj 542 175 hip~ 1000;
#X obj 39 214 *~;
#X floatatom 54 165 5 0 0 0 - - - 0;
#X text 91 167 "dry" signal;
#X obj 56 136 expr 1 - $f1;
#X obj 206 584 *~;
#X obj 100 90 r bypassFilterBank;
#X floatatom 235 537 5 0 0 0 - - - 0;
#X obj 43 55 loadbang;
#X msg 44 81 0;
#X obj 357 186 bp~ 1000 10;
#X obj 308 231 r xPos;
#X obj 375 360 + 0.2;
#X obj 495 65 * 2000;
#X obj 495 90 + 2000;
#X obj 561 406 * 0.5;
#X obj 561 431 + 0.5;
#X text 554 77 range is 2000-4000;
#X text 602 421 range is 0.5-1;
#X obj 308 260 * 0.5;
#X text 197 285 range is 0.5-0.8;
#X text 415 360 range is 0.5-1;
#X obj 308 285 + 0.3;
#X obj 562 352 r zPos;
#X obj 494 30 r zPos;
#X connect 0 0 23 0;
#X connect 1 0 0 1;
#X connect 2 0 28 1;
#X connect 3 0 17 1;
#X connect 4 0 18 1;
#X connect 5 0 23 0;
#X connect 6 0 5 1;
#X connect 7 0 23 0;
#X connect 8 0 7 1;
#X connect 9 0 17 0;
#X connect 9 0 18 0;
#X connect 9 0 19 0;
#X connect 9 0 28 0;
#X connect 11 0 3 0;
#X connect 12 0 1 0;
#X connect 13 0 2 0;
#X connect 14 0 6 0;
#X connect 15 0 4 0;
#X connect 16 0 8 0;
#X connect 17 0 0 0;
#X connect 18 0 7 0;
#X connect 19 0 10 0;
#X connect 20 0 19 1;
#X connect 22 0 20 0;
#X connect 23 0 10 0;
#X connect 24 0 22 0;
#X connect 24 0 25 0;
#X connect 25 0 23 1;
#X connect 26 0 27 0;
#X connect 27 0 22 0;
#X connect 28 0 5 0;
#X connect 29 0 37 0;
#X connect 30 0 6 0;
#X connect 31 0 32 0;
#X connect 32 0 2 0;
#X connect 32 0 4 0;
#X connect 33 0 34 0;
#X connect 34 0 8 0;
#X connect 37 0 40 0;
#X connect 40 0 1 0;
#X connect 40 0 30 0;
#X connect 41 0 33 0;
#X connect 42 0 31 0;
#X restore 585 1553 pd filterbank;
#X obj 932 1445 hsl 128 15 0 1 0 0 lopGain lopGain LowPass_Gain -2 -8 0 10 #fcfcfc #000000 #000000 0 1;
#X obj 775 1443 hsl 128 15 50 4000 0 0 lopFreq lopFreq LowPass_Frequency -2 -8 0 10 #fcfcfc #000000 #000000 0 1;
#X obj 932 1497 hsl 128 15 0 1 0 0 bpGain bpGain BandPass_Gain -2 -8 0 10 #fcfcfc #000000 #000000 0 1;
#X obj 774 1497 hsl 128 15 1000 4000 0 0 bpFreq bpFreq BandPass_Frequency -2 -8 0 10 #fcfcfc #000000 #000000 0 1;
#X obj 935 1553 hsl 128 15 0 1 0 0 hpGain hpGain HighPass_Gain -2 -8 0 10 #fcfcfc #000000 #000000 0 1;
#X obj 776 1556 hsl 128 15 1000 4000 0 0 hpFreq hpFreq HighPass_Frequency -2 -8 0 10 #fcfcfc #000000 #000000 0 1;
#X obj 641 508 s oscpitch1;
#X floatatom 584 494 5 0 0 0 - - - 0;
#X obj 644 566 s oscpitch2;
#X obj 641 618 s oscpitch3;
#X obj 784 1935 *~;
#X floatatom 566 1854 5 0 0 0 - - - 0;
#X floatatom 547 1837 5 0 1 0 - - - 0;
#X floatatom 528 1816 5 0 0 0 - - - 0;
#X floatatom 491 1772 5 0 1 0 - - - 0;
#X floatatom 510 1792 5 0 0 0 - - - 0;
#X text 525 1768 peak level;
#X text 541 1789 attack duration (ms);
#X text 562 1814 decay duration (ms);
#X text 581 1836 sustain level (% of peak);
#X text 601 1853 release duration (ms);
#N canvas 251 52 707 458 envelope_adsr 0;
#X obj 209 53 moses;
#X obj 112 56 inlet;
#X obj 112 92 sel 0;
#X msg 111 130 stop;
#X obj 209 93 t b b;
#X obj 258 125 t b;
#X obj 174 209 f \$1;
#X obj 174 245 pack 0 \$2;
#X msg 125 245 0;
#X obj 337 145 inlet;
#X obj 377 145 inlet;
#X obj 421 145 inlet;
#X obj 461 145 inlet;
#X obj 314 239 del \$2;
#X obj 314 265 f \$4;
#X obj 390 268 * \$1;
#X obj 389 299 pack 0 \$3;
#X obj 472 301 pack 0 \$5;
#X obj 518 269 inlet;
#X obj 354 358 line~;
#X obj 354 386 outlet~;
#X obj 313 299 * 0.5;
#X connect 0 0 4 0;
#X connect 0 1 5 0;
#X connect 1 0 2 0;
#X connect 2 0 3 0;
#X connect 2 0 17 0;
#X connect 2 1 0 0;
#X connect 3 0 13 0;
#X connect 4 0 5 0;
#X connect 4 1 8 0;
#X connect 5 0 6 0;
#X connect 5 0 13 0;
#X connect 6 0 7 0;
#X connect 7 0 19 0;
#X connect 8 0 19 0;
#X connect 9 0 15 1;
#X connect 9 0 6 1;
#X connect 10 0 13 1;
#X connect 10 0 7 1;
#X connect 11 0 16 1;
#X connect 12 0 14 1;
#X connect 13 0 14 0;
#X connect 14 0 21 0;
#X connect 15 0 16 0;
#X connect 16 0 19 0;
#X connect 17 0 19 0;
#X connect 18 0 17 1;
#X connect 19 0 20 0;
#X connect 21 0 15 0;
#X restore 473 1883 pd envelope_adsr;
#X msg 566 1738 1;
#X msg 636 1738 0.8;
#X obj 589 1708 loadbang;
#X obj 653 1481 tgl 15 0 bypassFilterBank bypassFilterBank empty 17 7 0 10 #fcfcfc #000000 #000000 0 1;
#X text 606 1480 Bypass;
#X obj 458 1707 tgl 15 0 empty empty empty 17 7 0 10 #fcfcfc #000000 #000000 0 1;
#N canvas 270 86 1178 553 chorus 0;
#X obj 23 259 delwrite~ \$0-delay 1000;
#X obj 221 106 osc~ 0.05;
#X obj 221 131 *~ 10;
#X obj 376 130 *~ 10;
#X obj 221 156 +~ 11;
#X obj 376 155 +~ 21;
#X obj 376 105 osc~ 0.08;
#X obj 511 135 *~ 10;
#X obj 511 110 osc~ 0.13;
#X obj 511 160 +~ 13;
#X obj 694 142 *~ 10;
#X obj 694 167 +~ 55;
#X obj 694 117 osc~ 0.03;
#X obj 839 168 +~ 87;
#X obj 839 118 osc~ 0.015;
#X obj 985 114 osc~ 0.12;
#X obj 985 164 +~ 67;
#X obj 985 139 *~ 5;
#X obj 839 143 *~ 15;
#X obj 221 184 vd~ \$0-delay;
#X obj 376 183 vd~ \$0-delay;
#X obj 511 188 vd~ \$0-delay;
#X obj 694 195 vd~ \$0-delay;
#X obj 839 196 vd~ \$0-delay;
#X obj 985 192 vd~ \$0-delay;
#X obj 61 145 nbx 5 14 -1e+37 1e+37 0 0 empty empty empty 0 -8 0 10 #fcfcfc #000000 #000000 0 256;
#X obj 22 92 inlet~;
#X obj 532 418 outlet~;
#X obj 630 416 outlet~;
#X obj 271 269 *~ 0.05;
#X obj 214 270 *~ 0.95;
#X obj 1032 261 *~ 0.95;
#X obj 975 262 *~ 0.05;
#X obj 884 262 *~ 0.85;
#X obj 368 266 *~ 0.85;
#X obj 498 267 *~ 0.7;
#X obj 744 263 *~ 0.7;
#X obj 827 263 *~ 0.15;
#X obj 687 264 *~ 0.3;
#X obj 555 266 *~ 0.3;
#X obj 425 265 *~ 0.15;
#X obj 222 221 /~ 6;
#X obj 375 224 /~ 6;
#X obj 512 221 /~ 6;
#X obj 696 226 /~ 6;
#X obj 841 224 /~ 6;
#X obj 988 225 /~ 6;
#X obj 23 172 *~ 1;
#X connect 1 0 2 0;
#X connect 2 0 4 0;
#X connect 3 0 5 0;
#X connect 4 0 19 0;
#X connect 5 0 20 0;
#X connect 6 0 3 0;
#X connect 7 0 9 0;
#X connect 8 0 7 0;
#X connect 9 0 21 0;
#X connect 10 0 11 0;
#X connect 11 0 22 0;
#X connect 12 0 10 0;
#X connect 13 0 23 0;
#X connect 14 0 18 0;
#X connect 15 0 17 0;
#X connect 16 0 24 0;
#X connect 17 0 16 0;
#X connect 18 0 13 0;
#X connect 19 0 41 0;
#X connect 20 0 42 0;
#X connect 21 0 43 0;
#X connect 22 0 44 0;
#X connect 23 0 45 0;
#X connect 24 0 46 0;
#X connect 25 0 47 1;
#X connect 26 0 47 0;
#X connect 29 0 28 0;
#X connect 30 0 27 0;
#X connect 31 0 28 0;
#X connect 32 0 27 0;
#X connect 33 0 28 0;
#X connect 34 0 27 0;
#X connect 35 0 27 0;
#X connect 36 0 28 0;
#X connect 37 0 27 0;
#X connect 38 0 27 0;
#X connect 39 0 28 0;
#X connect 40 0 28 0;
#X connect 41 0 29 0;
#X connect 41 0 30 0;
#X connect 42 0 40 0;
#X connect 42 0 34 0;
#X connect 43 0 39 0;
#X connect 43 0 35 0;
#X connect 44 0 36 0;
#X connect 44 0 38 0;
#X connect 45 0 33 0;
#X connect 45 0 37 0;
#X connect 46 0 31 0;
#X connect 46 0 32 0;
#X connect 47 0 0 0;
#X restore 531 1211 pd chorus;
#N canvas 2042 55 617 844 flanger 0;
#X obj 75 208 +~ 1;
#X obj 75 235 *~ 0.5;
#X obj 74 417 vd~ \$0-delay1, f 16;
#X text 73 108 Low Frequency Oscillator;
#X text 203 263 Depth (ms);
#X obj 74 513 *~ 1;
#X text 87 546 y[n] = x[n] + ax[n-t];
#X text 163 487 Feedback (0-1);
#X obj 75 181 osc~ 1;
#X text 117 513 ax[n-t];
#X text 131 156 Rate (Hz);
#X obj 45 545 +~, f 4;
#X obj 75 159 nbx 5 14 -1e+37 1e+37 0 0 empty \$0-rate empty 0 -8 0 10 #fcfcfc #000000 #000000 0 256;
#X obj 144 267 nbx 5 14 0 1e+37 0 0 empty \$0-depth empty 0 -8 0 10 #fcfcfc #000000 #000000 0 256;
#X obj 147 356 nbx 5 14 0 1e+37 0 0 empty \$0-shift empty 0 -8 0 10 #fcfcfc #000000 #000000 0 256;
#X obj 103 489 nbx 5 14 0 1 0 0 empty \$0-feedback empty 0 -8 0 10 #fcfcfc #000000 #000000 0 256;
#X obj 75 294 *~ 1, f 9;
#X obj 74 377 +~ 0.001, f 11;
#X obj 51 18 inlet~;
#X obj 46 606 outlet~;
#X obj 144 239 receive flangerDepth;
#X obj 147 327 receive flangerShift;
#X obj 105 455 receive flangerFeedback;
#X obj 79 63 delwrite~ \$0-delay1 5000;
#X obj 75 132 receive flangerRate;
#X obj 268 457 r xPos;
#X connect 0 0 1 0;
#X connect 1 0 16 0;
#X connect 2 0 5 0;
#X connect 5 0 11 1;
#X connect 8 0 0 0;
#X connect 11 0 19 0;
#X connect 12 0 8 0;
#X connect 13 0 16 1;
#X connect 14 0 17 1;
#X connect 15 0 5 1;
#X connect 16 0 17 0;
#X connect 17 0 2 0;
#X connect 18 0 11 0;
#X connect 18 0 23 0;
#X connect 20 0 13 0;
#X connect 21 0 14 0;
#X connect 22 0 15 0;
#X connect 24 0 12 0;
#X connect 25 0 15 0;
#X restore 531 858 pd flanger;
#N canvas 2099 -26 1858 1037 xpand 0;
#X obj 381 16 inlet~;
#X obj 482 17 inlet~;
#X obj 484 370 outlet~;
#X obj 384 369 outlet~;
#X obj 446 140 +~;
#X obj 441 179 /~ 2;
#X obj 391 135 -~;
#X obj 513 140 -~;
#X obj 389 261 *~ 0;
#X obj 489 256 *~ 0;
#X floatatom 599 144 5 0 0 0 - - - 0;
#X obj 599 117 receive xpandAmount;
#X obj 385 178 /~ 2;
#X obj 513 177 /~ 2;
#X obj 569 32 r xPos;
#X obj 586 60 * -2;
#X obj 589 87 + 4;
#X text 625 76 range is 4-2;
#X connect 0 0 6 0;
#X connect 0 0 4 0;
#X connect 0 0 7 1;
#X connect 1 0 6 1;
#X connect 1 0 4 1;
#X connect 1 0 7 0;
#X connect 4 0 5 0;
#X connect 5 0 3 0;
#X connect 5 0 2 0;
#X connect 6 0 12 0;
#X connect 7 0 13 0;
#X connect 8 0 3 0;
#X connect 9 0 2 0;
#X connect 10 0 9 1;
#X connect 10 0 8 1;
#X connect 11 0 10 0;
#X connect 12 0 8 0;
#X connect 13 0 9 0;
#X connect 14 0 15 0;
#X connect 15 0 16 0;
#X connect 16 0 10 0;
#X restore 535 1365 pd xpand;
#X obj 608 1366 hsl 128 15 0 5 0 0 xpandAmount xpandAmount Xpand:_Amount -2 -8 0 10 #fcfcfc #000000 #000000 0 1;
#N canvas 62 84 710 599 filterbank 0;
#X obj 195 311 *~;
#X floatatom 210 283 5 0 0 0 - - - 0;
#X floatatom 384 152 5 0 0 0 - - - 0;
#X floatatom 245 142 5 0 0 0 - - - 0;
#X floatatom 586 148 5 0 0 0 - - - 0;
#X obj 360 321 *~;
#X floatatom 377 297 5 0 0 0 - - - 0;
#X obj 540 310 *~;
#X floatatom 557 286 5 0 0 0 - - - 0;
#X obj 360 71 inlet~;
#X obj 86 522 outlet~;
#X obj 247 113 receive lopFreq;
#X obj 211 254 receive lopGain;
#X obj 385 115 receive bpFreq;
#X obj 376 268 receive bpGain;
#X obj 586 122 receive hpFreq;
#X obj 558 258 receive hpGain;
#X obj 195 172 lop~ 50;
#X obj 542 175 hip~ 1000;
#X obj 34 210 *~;
#X floatatom 54 165 5 0 0 0 - - - 0;
#X text 91 167 "dry" signal;
#X obj 56 136 expr 1 - $f1;
#X obj 203 449 *~;
#X obj 73 88 r bypassFilterBank;
#X floatatom 232 402 5 0 0 0 - - - 0;
#X obj 43 55 loadbang;
#X msg 44 81 0;
#X obj 357 186 bp~ 1000 10;
#X connect 0 0 23 0;
#X connect 1 0 0 1;
#X connect 2 0 28 1;
#X connect 3 0 17 1;
#X connect 4 0 18 1;
#X connect 5 0 23 0;
#X connect 6 0 5 1;
#X connect 7 0 23 0;
#X connect 8 0 7 1;
#X connect 9 0 17 0;
#X connect 9 0 18 0;
#X connect 9 0 19 0;
#X connect 9 0 28 0;
#X connect 11 0 3 0;
#X connect 12 0 1 0;
#X connect 13 0 2 0;
#X connect 14 0 6 0;
#X connect 15 0 4 0;
#X connect 16 0 8 0;
#X connect 17 0 0 0;
#X connect 18 0 7 0;
#X connect 19 0 10 0;
#X connect 20 0 19 1;
#X connect 22 0 20 0;
#X connect 23 0 10 0;
#X connect 24 0 22 0;
#X connect 24 0 25 0;
#X connect 25 0 23 1;
#X connect 26 0 27 0;
#X connect 27 0 22 0;
#X connect 28 0 5 0;
#X restore 465 1553 pd filterbank;
#X obj 318 1952 *~;
#X obj 554 965 hsl 128 15 0 1 0 0 flangerShift flangerShift Flanger:_Shift -2 -8 0 10 #fcfcfc #000000 #000000 0 1;
#X obj 555 929 hsl 128 15 0 1 0 0 flangerDepth flangerDepth Flanger:_Depth -2 -8 0 10 #fcfcfc #000000 #000000 0 1;
#X obj 553 998 hsl 128 15 0 1 0 0 flangerFeedback flangerFeedback Flanger:_Feedback -2 -8 0 10 #fcfcfc #000000 #000000 0 1;
#X obj 556 895 hsl 128 15 0 5 0 0 flangerRate flangerRate Flanger:_Rate -2 -8 0 10 #fcfcfc #000000 #000000 0 1;
#N canvas 1625 -20 1858 1037 phasor 0;
#X obj 113 164 +~ 1;
#X obj 113 191 *~ 0.5;
#X text 110 70 Low Frequency Oscillator;
#X text 199 487 x[n-t];
#X text 188 365 t (ms);
#X text 241 219 Depth (ms);
#X text 48 527 x[n];
#X obj 113 561 *~ 1;
#X text 126 600 y[n] = x[n] + ax[n-t];
#X text 228 537 Feedback (0-1);
#X obj 113 137 osc~ 1;
#X text 156 561 ax[n-t];
#X text 169 112 Rate (Hz);
#X text 240 304 Shift (ms);
#X obj 84 599 +~, f 4;
#X obj 113 115 nbx 5 14 -1e+37 1e+37 0 0 empty \$0-rate empty 0 -8 0 10 #fcfcfc #000000 #000000 0 256;
#X obj 182 223 nbx 5 14 0 1e+37 0 0 empty \$0-depth empty 0 -8 0 10 #fcfcfc #000000 #000000 0 256;
#X obj 180 304 nbx 5 14 0 1e+37 0 0 empty \$0-shift empty 0 -8 0 10 #fcfcfc #000000 #000000 0 256;
#X obj 168 539 nbx 5 14 0 1 0 0 empty \$0-feedback empty 0 -8 0 10 #fcfcfc #000000 #000000 0 256;
#N canvas 0 23 622 635 apset~ 0;
#N canvas 0 22 450 300 ap~ 0;
#X obj 127 160 rpole~;
#X obj 127 135 rzero_rev~;
#X obj 127 92 inlet~;
#X obj 127 185 outlet~;
#X obj 204 92 inlet~;
#X connect 0 0 3 0;
#X connect 1 0 0 0;
#X connect 2 0 1 0;
#X connect 4 0 1 1;
#X connect 4 0 0 1;
#X restore 155 36 pd ap~;
#N canvas 0 22 450 300 ap~ 0;
#X obj 127 160 rpole~;
#X obj 127 135 rzero_rev~;
#X obj 127 92 inlet~;
#X obj 127 185 outlet~;
#X obj 204 92 inlet~;
#X connect 0 0 3 0;
#X connect 1 0 0 0;
#X connect 2 0 1 0;
#X connect 4 0 1 1;
#X connect 4 0 0 1;
#X restore 155 66 pd ap~;
#N canvas 0 22 450 300 ap~ 0;
#X obj 127 160 rpole~;
#X obj 127 135 rzero_rev~;
#X obj 127 92 inlet~;
#X obj 127 185 outlet~;
#X obj 204 92 inlet~;
#X connect 0 0 3 0;
#X connect 1 0 0 0;
#X connect 2 0 1 0;
#X connect 4 0 1 1;
#X connect 4 0 0 1;
#X restore 155 96 pd ap~;
#N canvas 0 22 450 300 ap~ 0;
#X obj 127 160 rpole~;
#X obj 127 135 rzero_rev~;
#X obj 127 92 inlet~;
#X obj 127 185 outlet~;
#X obj 204 92 inlet~;
#X connect 0 0 3 0;
#X connect 1 0 0 0;
#X connect 2 0 1 0;
#X connect 4 0 1 1;
#X connect 4 0 0 1;
#X restore 155 126 pd ap~;
#N canvas 0 22 450 300 ap~ 0;
#X obj 127 160 rpole~;
#X obj 127 135 rzero_rev~;
#X obj 127 92 inlet~;
#X obj 127 185 outlet~;
#X obj 204 92 inlet~;
#X connect 0 0 3 0;
#X connect 1 0 0 0;
#X connect 2 0 1 0;
#X connect 4 0 1 1;
#X connect 4 0 0 1;
#X restore 155 156 pd ap~;
#N canvas 0 22 450 300 ap~ 0;
#X obj 127 160 rpole~;
#X obj 127 135 rzero_rev~;
#X obj 127 92 inlet~;
#X obj 127 185 outlet~;
#X obj 204 92 inlet~;
#X connect 0 0 3 0;
#X connect 1 0 0 0;
#X connect 2 0 1 0;
#X connect 4 0 1 1;
#X connect 4 0 0 1;
#X restore 155 186 pd ap~;
#N canvas 0 22 450 300 ap~ 0;
#X obj 127 160 rpole~;
#X obj 127 135 rzero_rev~;
#X obj 127 92 inlet~;
#X obj 127 185 outlet~;
#X obj 204 92 inlet~;
#X connect 0 0 3 0;
#X connect 1 0 0 0;
#X connect 2 0 1 0;
#X connect 4 0 1 1;
#X connect 4 0 0 1;
#X restore 155 216 pd ap~;
#N canvas 0 22 450 300 ap~ 0;
#X obj 127 160 rpole~;
#X obj 127 135 rzero_rev~;
#X obj 127 92 inlet~;
#X obj 127 185 outlet~;
#X obj 204 92 inlet~;
#X connect 0 0 3 0;
#X connect 1 0 0 0;
#X connect 2 0 1 0;
#X connect 4 0 1 1;
#X connect 4 0 0 1;
#X restore 155 246 pd ap~;
#N canvas 0 22 450 300 ap~ 0;
#X obj 127 160 rpole~;
#X obj 127 135 rzero_rev~;
#X obj 127 92 inlet~;
#X obj 127 185 outlet~;
#X obj 204 92 inlet~;
#X connect 0 0 3 0;
#X connect 1 0 0 0;
#X connect 2 0 1 0;
#X connect 4 0 1 1;
#X connect 4 0 0 1;
#X restore 155 276 pd ap~;
#N canvas 0 22 450 300 ap~ 0;
#X obj 127 160 rpole~;
#X obj 127 135 rzero_rev~;
#X obj 127 92 inlet~;
#X obj 127 185 outlet~;
#X obj 204 92 inlet~;
#X connect 0 0 3 0;
#X connect 1 0 0 0;
#X connect 2 0 1 0;
#X connect 4 0 1 1;
#X connect 4 0 0 1;
#X restore 155 306 pd ap~;
#N canvas 0 22 450 300 ap~ 0;
#X obj 127 160 rpole~;
#X obj 127 135 rzero_rev~;
#X obj 127 92 inlet~;
#X obj 127 185 outlet~;
#X obj 204 92 inlet~;
#X connect 0 0 3 0;
#X connect 1 0 0 0;
#X connect 2 0 1 0;
#X connect 4 0 1 1;
#X connect 4 0 0 1;
#X restore 155 336 pd ap~;
#N canvas 0 22 450 300 ap~ 0;
#X obj 127 160 rpole~;
#X obj 127 135 rzero_rev~;
#X obj 127 92 inlet~;
#X obj 127 185 outlet~;
#X obj 204 92 inlet~;
#X connect 0 0 3 0;
#X connect 1 0 0 0;
#X connect 2 0 1 0;
#X connect 4 0 1 1;
#X connect 4 0 0 1;
#X restore 155 366 pd ap~;
#N canvas 0 22 450 300 ap~ 0;
#X obj 127 160 rpole~;
#X obj 127 135 rzero_rev~;
#X obj 127 92 inlet~;
#X obj 127 185 outlet~;
#X obj 204 92 inlet~;
#X connect 0 0 3 0;
#X connect 1 0 0 0;
#X connect 2 0 1 0;
#X connect 4 0 1 1;
#X connect 4 0 0 1;
#X restore 155 396 pd ap~;
#N canvas 0 22 450 300 ap~ 0;
#X obj 127 160 rpole~;
#X obj 127 135 rzero_rev~;
#X obj 127 92 inlet~;
#X obj 127 185 outlet~;
#X obj 204 92 inlet~;
#X connect 0 0 3 0;
#X connect 1 0 0 0;
#X connect 2 0 1 0;
#X connect 4 0 1 1;
#X connect 4 0 0 1;
#X restore 155 426 pd ap~;
#N canvas 0 22 450 300 ap~ 0;
#X obj 127 160 rpole~;
#X obj 127 135 rzero_rev~;
#X obj 127 92 inlet~;
#X obj 127 185 outlet~;
#X obj 204 92 inlet~;
#X connect 0 0 3 0;
#X connect 1 0 0 0;
#X connect 2 0 1 0;
#X connect 4 0 1 1;
#X connect 4 0 0 1;
#X restore 155 456 pd ap~;
#N canvas 0 22 450 300 ap~ 0;
#X obj 127 160 rpole~;
#X obj 127 135 rzero_rev~;
#X obj 127 92 inlet~;
#X obj 127 185 outlet~;
#X obj 204 92 inlet~;
#X connect 0 0 3 0;
#X connect 1 0 0 0;
#X connect 2 0 1 0;
#X connect 4 0 1 1;
#X connect 4 0 0 1;
#X restore 155 486 pd ap~;
#X obj 155 6 inlet~;
#X obj 225 6 inlet~;
#X obj 155 511 outlet~;
#X connect 0 0 1 0;
#X connect 1 0 2 0;
#X connect 2 0 3 0;
#X connect 3 0 4 0;
#X connect 4 0 5 0;
#X connect 5 0 6 0;
#X connect 6 0 7 0;
#X connect 7 0 8 0;
#X connect 8 0 9 0;
#X connect 9 0 10 0;
#X connect 10 0 11 0;
#X connect 11 0 12 0;
#X connect 12 0 13 0;
#X connect 13 0 14 0;
#X connect 14 0 15 0;
#X connect 15 0 18 0;
#X connect 16 0 0 0;
#X connect 17 0 0 1;
#X connect 17 0 1 1;
#X connect 17 0 2 1;
#X connect 17 0 3 1;
#X connect 17 0 4 1;
#X connect 17 0 5 1;
#X connect 17 0 6 1;
#X connect 17 0 7 1;
#X connect 17 0 8 1;
#X connect 17 0 9 1;
#X connect 17 0 10 1;
#X connect 17 0 11 1;
#X connect 17 0 12 1;
#X connect 17 0 13 1;
#X connect 17 0 14 1;
#X connect 17 0 15 1;
#X restore 113 488 pd apset~;
#X obj 113 250 *~ 0.3, f 9;
#X obj 114 330 +~ 0.6, f 11;
#X obj 181 464 clip~ 0 1;
#X obj 67 37 inlet~;
#X obj 82 672 outlet~;
#X obj 114 91 receive phasorRate;
#X obj 185 197 receive phasorDepth;
#X obj 182 281 receive phasorShift;
#X obj 168 515 receive phasorFeedback;
#X obj 305 402 r xPos;
#X obj 309 475 + 1;
#X obj 309 451 * -0.5;
#X connect 0 0 1 0;
#X connect 1 0 20 0;
#X connect 7 0 14 1;
#X connect 10 0 0 0;
#X connect 14 0 24 0;
#X connect 15 0 10 0;
#X connect 16 0 20 1;
#X connect 17 0 21 1;
#X connect 18 0 7 1;
#X connect 19 0 7 0;
#X connect 20 0 21 0;
#X connect 21 0 22 0;
#X connect 22 0 19 1;
#X connect 23 0 14 0;
#X connect 23 0 19 0;
#X connect 25 0 15 0;
#X connect 26 0 16 0;
#X connect 27 0 17 0;
#X connect 28 0 18 0;
#X connect 29 0 31 0;
#X connect 30 0 18 0;
#X connect 31 0 30 0;
#X restore 530 1024 pd phasor;
#X obj 549 1137 hsl 128 15 0 1 0 0 phasorShift phasorShift Phasor:_Shift -2 -8 0 10 #fcfcfc #000000 #000000 0 1;
#X obj 552 1100 hsl 128 15 0 1 0 0 phasorDepth phasorDepth Phasor:_Depth -2 -8 0 10 #fcfcfc #000000 #000000 0 1;
#X obj 551 1173 hsl 128 15 0 1 0 0 phasorFeedback phasorFeedback Phasor:_Feedback -2 -8 0 10 #fcfcfc #000000 #000000 0 1;
#X obj 553 1062 hsl 128 15 0 5 0 0 phasorRate phasorRate Phasor:_Rate -2 -8 0 10 #fcfcfc #000000 #000000 0 1;
#X floatatom 1484 363 5 0 0 0 - - - 0;
#X obj 1269 -16 f;
#X obj 1316 0 + 1;
#X floatatom 1363 -71 5 0 1 0 - - - 0;
#X obj 1372 -104 hsl 162 19 0 1000 0 0 empty empty empty -2 -10 0 12 #fcfcfc #000000 #000000 0 1;
#X text 1420 -80 sets metro time (replace with 'r' object);
#X obj 1269 -101 tgl 15 0 empty empty empty 17 7 0 10 #fcfcfc #000000 #000000 0 1;
#X msg 1301 223 28;
#X msg 531 2195 open example.wav \, start;
#X msg 472 2252 stop;
#X floatatom 492 2134 5 0 0 0 - - - 0;
#X obj 492 2160 select 0 1;
#X msg 1357 -32 -1;
#X obj 528 2394 writesf~ 2;
#X obj 21 48 tgl 15 0 empty empty empty 17 7 0 10 #fcfcfc #000000 #000000 0 1;
#X text 50 58 WARNING: WILL OVERWRITE FILE!!!!!!!;
#X text 45 44 toggle playback + recording;
#X obj 492 2102 r startRecording;
#X obj 21 100 s startRecording;
#X obj 28 77 s startPlayback;
#X obj 1269 -140 r startPlayback;
#X obj 457 1675 r startPlayback;
#X obj 27 -32 tgl 15 0 empty empty empty 17 7 0 10 #fcfcfc #000000 #000000 0 1;
#X obj 24 -1 s startPlayback;
#X text 48 -35 toggle playback only;
#X obj 286 2276 *~ 0.25;
#X obj 879 2277 *~ 0.25;
#X msg 1235 222 24;
#X obj 438 2217 r stopRecording;
#X obj 1269 77 mod 20;
#X msg 1302 53 20;
#X text 1386 -24 reset metro;
#X obj 1302 25 r startPlayback;
#X floatatom 1497 681 5 0 0 0 - - - 0;
#X msg 1278 533 28;
#X msg 1244 533 30;
#X msg 1311 533 33;
#X msg 1344 533 28;
#X msg 1377 533 25;
#X msg 1409 532 35;
#X msg 1441 532 28;
#X msg 1472 532 37;
#X msg 1535 532 40;
#X msg 1504 532 28;
#X msg 1566 533 28;
#X msg 1595 533 37;
#X msg 1625 533 28;
#X msg 1655 532 35;
#X msg 1687 532 25;
#X msg 1778 533 33;
#X msg 1210 532 24;
#X msg 1718 532 28;
#X msg 1749 533 35;
#X msg 1808 533 37;
#X obj 1269 139 s select;
#X obj 1352 140 r select;
#X msg 1267 223 23;
#X msg 1334 223 26;
#X msg 1367 223 21;
#X msg 1400 223 24;
#X msg 1432 222 21;
#X msg 1464 222 23;
#X msg 1527 222 23;
#X msg 1742 222 16;
#X msg 1495 222 20;
#X msg 1558 222 28;
#X msg 1589 223 23;
#X msg 1619 223 26;
#X msg 1648 223 20;
#X msg 1678 222 28;
#X msg 1710 222 18;
#X msg 1773 223 21;
#X msg 1802 223 16;
#X msg 1832 223 20;
#X obj 1352 163 select 0 1 2 3 4 5 6 7 8 9 10 11 12 13 14 15 16 17 18 19 20, f 61;
#X obj 1329 473 select 0 1 2 3 4 5 6 7 8 9 10 11 12 13 14 15 16 17 18 19 20, f 61;
#X obj 1329 451 r select, f 9;
#X floatatom 1226 27 5 0 0 0 - - - 0;
#X obj 532 346 r pitch;
#X floatatom 1500 992 5 0 0 0 - - - 0;
#X obj 1320 766 r select;
#X msg 1495 845 23;
#X msg 1463 845 20;
#X msg 1740 846 21;
#X obj 1320 786 select 0 1 2 3 4 5 6 7 8 9 10 11 12 13 14 15 16 17 18 19 20, f 61;
#X msg 382 90 1;
#X msg 354 90 0;
#X msg 492 90 1;
#X msg 467 91 0;
#X msg 596 93 1;
#X msg 570 93 0;
#X obj 335 163 * 1;
#X floatatom 335 194 5 0 0 0 - - - 0;
#X floatatom 368 125 5 0 0 0 - - - 0;
#X obj 448 163 * 1;
#X floatatom 448 194 5 0 0 0 - - - 0;
#X floatatom 481 125 5 0 0 0 - - - 0;
#X obj 551 164 * 1;
#X floatatom 551 195 5 0 0 0 - - - 0;
#X floatatom 584 126 5 0 0 0 - - - 0;
#X obj 427 233 + 0, f 4;
#X obj 473 262 + 0, f 4;
#X obj 457 345 s pitch;
#X floatatom 457 310 5 0 0 0 - - - 0;
#X obj 423 -130 key;
#X floatatom 423 -105 5 0 0 0 - - - 0;
#X obj 292 125 r melody1;
#X obj 409 124 r melody2;
#X obj 523 125 r melody3;
#X obj 1484 397 s melody1;
#X obj 1497 710 s melody2;
#X obj 1500 1016 s melody3;
#X text 1412 139 MELODY 1;
#X text 1394 450 MELODY 2;
#X text 1378 765 MELODY 3;
#X msg 1235 846 35;
#X msg 1203 845 33;
#X msg 1269 846 40;
#X msg 1302 846 42;
#X msg 1368 846 40;
#X msg 1336 846 35;
#X msg 1400 845 33;
#X msg 1432 845 28;
#X msg 1526 845 18;
#X msg 1557 846 16;
#X msg 1616 846 16;
#X msg 1646 845 18;
#X msg 1587 846 21;
#X msg 1678 845 23;
#X msg 1709 845 18;
#X msg 1799 846 23;
#X msg 1769 846 28;
#X obj 706 395 r startPlayback;
#X obj 321 -44 r startPlayback;
#X obj 23 -75 hsl 128 15 0 1 0 0 mastergain mastergain mastergain -2 -8 0 10 #fcfcfc #000000 #000000 0 1;
#X obj 493 1701 r mastergain;
#X obj 706 462 tgl 16 0 empty empty empty 0 -8 0 10 #fcfcfc #000000 #000000 0 1;
#X obj 1269 -56 metro 200;
#X obj 732 677 hsl 128 15 0 1 0 0 oscgain4 oscgain4 Osc_Gain4 -2 -8 0 10 #fcfcfc #000000 #000000 0 1;
#X obj 642 675 s oscpitch4;
#X obj 61 542 hsl 136 16 0 1 0 0 empty empty empty -2 -8 0 10 #fcfcfc #000000 #000000 0 1;
#X obj 60 490 hsl 136 16 0 1 0 0 empty empty empty -2 -8 0 10 #fcfcfc #000000 #000000 0 1;
#X obj 57 516 s xPos;
#X obj 1081 1363 r xPos;
#X obj 653 1456 r startPlayback;
#X obj 591 1268 r xPos;
#X obj 700 1528 + 2000;
#X obj 699 1506 * 2000;
#X obj 1130 1490 * 0.5;
#X obj 1130 1517 + 0.5;
#X obj 1081 1387 * 0.5;
#X obj 1081 1412 + 0.3;
#X obj 1080 1467 + 0.2;
#X obj 589 1301 * -2;
#X obj 589 1328 + 4;
#X obj 406 925 r xPos;
#X msg 62 314 0;
#X msg 73 330 1;
#X msg 82 345 2;
#X msg 92 362 3;
#X msg 102 379 4;
#X msg 112 394 5;
#X msg 123 411 6;
#X msg 136 427 7;
#X msg 146 443 8;
#X obj 58 461 s points;
#X obj 62 284 r startPlayback;
#X obj 419 699 * -0.5;
#X obj 419 723 + 0.5;
#X obj 499 752 * 6;
#X msg 604 1737 50;
#X obj 885 472 r xPos;
#X obj 886 606 * -1;
#X obj 886 639 + 1, f 5;
#X obj 406 1073 * 0.5;
#X obj 406 1100 + 0.5;
#X obj 547 601 - 12;
#X obj 584 601 + 12;
#X msg 584 460 25;
#X obj 423 -82 - 49;
#X obj 423 34 select 0 1 2;
#X obj 486 -59 r points;
#X msg 1332 -103 200;
#X msg 385 -17 0;
#X text 418 -160 *** manually control which melody is being output with the number keys (1 \, 2 \, 3);
#X text 488 -86 *** game controls which melody is being output with the points amount (default 0 \, changes at 4 and 8);
#X text 393 2065 (manual control only): outputs a recording of this sound to the file specified in the 'open' message;
#X text 537 2179 specify filename here;
#X text 54 254 DEBUG;
#X obj 58 569 s zPos;
#X obj 886 524 r zPos;
#X obj 419 671 r zPos;
#X obj 1131 1462 r zPos;
#X obj 698 1483 r zPos;
#X floatatom 575 -22 5 0 0 0 - - - 0;
#X obj 17 -55 r osctrig;
#X obj 486 -28 / 9;
#X floatatom 322 988 5 0 0 0 - - - 0;
#X floatatom 336 743 5 0 0 0 - - - 0;
#X obj 1369 1463 *~;
#X obj 1360 1508 dac~;
#X obj 1433 1431 vline~;
#X obj 1369 1399 noise~;
#X obj 1556 1231 bng 15 250 50 0 empty empty empty 17 7 0 10 #fcfcfc #000000 #000000;
#X obj 1550 1193 r oscwall;
#X msg 1436 1381 1 25 \, 0 1000 75;
#X text 1409 1150 Sound that plays when player collides with wall;
#N canvas 511 139 363 431 shockwave 0;
#X obj 2 170 cos~;
#X obj 2 87 line~;
#X obj 2 150 wrap~;
#X obj 2 110 *~;
#X obj 2 32 t b b;
#X msg 2 58 0 10;
#X obj 2 190 hip~ 1;
#X obj 2 3 inlet trigger;
#X obj 2 210 outlet~;
#X msg 37 59 1 0;
#X obj 2 130 *~ 5;
#X connect 0 0 6 0;
#X connect 1 0 3 0;
#X connect 1 0 3 1;
#X connect 2 0 0 0;
#X connect 3 0 10 0;
#X connect 4 0 5 0;
#X connect 4 1 9 0;
#X connect 5 0 1 0;
#X connect 6 0 8 0;
#X connect 7 0 4 0;
#X connect 9 0 1 0;
#X connect 10 0 2 0;
#X restore 1570 1403 pd shockwave;
#X obj 1588 1425 hsl 64 12 0 1 0 1 empty empty vol 15 6 1 8 #fcfcfc #000000 #000000 6100 1;
#X obj 1569 1442 *~;
#X obj 1280 1408 hsl 64 12 0 1 0 1 empty empty vol 15 6 1 8 #fcfcfc #000000 #000000 6300 1;
#X obj 1261 1425 *~;
#X obj 1261 1447 throw~ out;
#X obj 1264 1469 hsl 64 12 0 1 0 1 empty empty fx 15 6 1 8 #fcfcfc #000000 #000000 6300 1;
#X obj 1245 1486 *~;
#N canvas 158 198 283 726 fireball 0;
#X obj -36 130 noise~;
#X obj -36 256 *~;
#X obj 39 -52 inlet trigger;
#X obj -36 276 outlet~;
#X obj -36 172 lop~ 70;
#X obj -36 193 lop~ 70;
#X obj -36 151 bp~ 70 1;
#X obj 71 102 *~;
#X obj -36 235 hip~ 5;
#X obj 71 58 line;
#X obj 71 79 sig~;
#X obj 71 144 lop~ 5;
#X obj 39 -31 trigger b b;
#X obj 31 123 + 40;
#X msg 111 28 1 100;
#X obj 39 -8 del 100;
#X msg 39 29 0 8000;
#X obj 31 102 * 100;
#X obj 71 124 *~;
#X obj -36 214 *~ 10;
#X connect 0 0 6 0;
#X connect 1 0 3 0;
#X connect 2 0 12 0;
#X connect 4 0 5 0;
#X connect 5 0 19 0;
#X connect 6 0 4 0;
#X connect 7 0 18 0;
#X connect 7 0 18 1;
#X connect 8 0 1 0;
#X connect 9 0 10 0;
#X connect 9 0 17 0;
#X connect 10 0 7 0;
#X connect 10 0 7 1;
#X connect 11 0 1 1;
#X connect 12 0 15 0;
#X connect 12 1 14 0;
#X connect 13 0 5 1;
#X connect 13 0 4 1;
#X connect 13 0 6 1;
#X connect 14 0 9 0;
#X connect 15 0 16 0;
#X connect 16 0 9 0;
#X connect 17 0 13 0;
#X connect 18 0 11 0;
#X connect 19 0 8 0;
#X restore 1262 1385 pd fireball;
#X obj 1245 1508 dac~;
#X obj 1569 1464 dac~;
#X connect 0 0 1 0;
#X connect 2 0 8 0;
#X connect 8 0 40 0;
#X connect 10 0 21 0;
#X connect 18 0 17 0;
#X connect 18 0 230 0;
#X connect 18 0 231 0;
#X connect 21 0 80 0;
#X connect 21 0 5 1;
#X connect 22 0 32 5;
#X connect 23 0 32 4;
#X connect 24 0 32 3;
#X connect 25 0 32 1;
#X connect 26 0 32 2;
#X connect 32 0 21 1;
#X connect 32 0 44 1;
#X connect 33 0 25 0;
#X connect 34 0 23 0;
#X connect 35 0 224 0;
#X connect 35 0 34 0;
#X connect 35 0 33 0;
#X connect 38 0 32 0;
#X connect 39 0 41 0;
#X connect 39 1 41 1;
#X connect 40 0 49 0;
#X connect 41 0 43 0;
#X connect 41 1 10 0;
#X connect 43 0 44 0;
#X connect 44 0 79 0;
#X connect 44 0 5 0;
#X connect 49 0 39 0;
#X connect 54 0 163 0;
#X connect 55 0 56 0;
#X connect 55 0 131 0;
#X connect 55 0 83 0;
#X connect 56 0 55 1;
#X connect 57 0 191 1;
#X connect 58 0 57 0;
#X connect 60 0 191 0;
#X connect 61 0 54 0;
#X connect 62 0 67 0;
#X connect 63 0 67 0;
#X connect 64 0 65 0;
#X connect 65 0 63 0;
#X connect 65 1 62 0;
#X connect 66 0 55 0;
#X connect 68 0 73 0;
#X connect 68 0 72 0;
#X connect 71 0 64 0;
#X connect 74 0 60 0;
#X connect 74 0 66 0;
#X connect 74 0 236 0;
#X connect 75 0 38 0;
#X connect 76 0 77 0;
#X connect 79 0 67 0;
#X connect 80 0 67 1;
#X connect 81 0 54 0;
#X connect 82 0 63 0;
#X connect 83 0 108 0;
#X connect 84 0 83 1;
#X connect 86 0 84 0;
#X connect 87 0 164 0;
#X connect 88 0 87 0;
#X connect 89 0 87 0;
#X connect 90 0 87 0;
#X connect 91 0 87 0;
#X connect 92 0 87 0;
#X connect 93 0 87 0;
#X connect 94 0 87 0;
#X connect 95 0 87 0;
#X connect 96 0 87 0;
#X connect 97 0 87 0;
#X connect 98 0 87 0;
#X connect 99 0 87 0;
#X connect 100 0 87 0;
#X connect 101 0 87 0;
#X connect 102 0 87 0;
#X connect 103 0 87 0;
#X connect 104 0 87 0;
#X connect 105 0 87 0;
#X connect 106 0 87 0;
#X connect 107 0 87 0;
#X connect 109 0 128 0;
#X connect 110 0 54 0;
#X connect 111 0 54 0;
#X connect 112 0 54 0;
#X connect 113 0 54 0;
#X connect 114 0 54 0;
#X connect 115 0 54 0;
#X connect 116 0 54 0;
#X connect 117 0 54 0;
#X connect 118 0 54 0;
#X connect 119 0 54 0;
#X connect 120 0 54 0;
#X connect 121 0 54 0;
#X connect 122 0 54 0;
#X connect 123 0 54 0;
#X connect 124 0 54 0;
#X connect 125 0 54 0;
#X connect 126 0 54 0;
#X connect 127 0 54 0;
#X connect 128 0 81 0;
#X connect 128 1 110 0;
#X connect 128 2 61 0;
#X connect 128 3 111 0;
#X connect 128 4 112 0;
#X connect 128 5 113 0;
#X connect 128 6 114 0;
#X connect 128 7 115 0;
#X connect 128 8 118 0;
#X connect 128 9 116 0;
#X connect 128 10 119 0;
#X connect 128 11 120 0;
#X connect 128 12 121 0;
#X connect 128 13 122 0;
#X connect 128 14 123 0;
#X connect 128 15 124 0;
#X connect 128 16 117 0;
#X connect 128 17 125 0;
#X connect 128 18 126 0;
#X connect 128 19 127 0;
#X connect 129 0 104 0;
#X connect 129 1 89 0;
#X connect 129 2 88 0;
#X connect 129 3 90 0;
#X connect 129 4 91 0;
#X connect 129 5 92 0;
#X connect 129 6 93 0;
#X connect 129 7 94 0;
#X connect 129 8 95 0;
#X connect 129 9 97 0;
#X connect 129 10 96 0;
#X connect 129 11 98 0;
#X connect 129 12 99 0;
#X connect 129 13 100 0;
#X connect 129 14 101 0;
#X connect 129 15 102 0;
#X connect 129 16 105 0;
#X connect 129 17 106 0;
#X connect 129 18 103 0;
#X connect 129 19 107 0;
#X connect 130 0 129 0;
#X connect 132 0 2 0;
#X connect 133 0 165 0;
#X connect 134 0 138 0;
#X connect 135 0 133 0;
#X connect 136 0 133 0;
#X connect 137 0 133 0;
#X connect 138 0 170 0;
#X connect 138 1 169 0;
#X connect 138 2 171 0;
#X connect 138 3 172 0;
#X connect 138 4 174 0;
#X connect 138 5 173 0;
#X connect 138 6 175 0;
#X connect 138 7 176 0;
#X connect 138 8 136 0;
#X connect 138 9 135 0;
#X connect 138 10 177 0;
#X connect 138 11 178 0;
#X connect 138 12 181 0;
#X connect 138 13 179 0;
#X connect 138 14 180 0;
#X connect 138 15 182 0;
#X connect 138 16 183 0;
#X connect 138 17 137 0;
#X connect 138 18 185 0;
#X connect 138 19 184 0;
#X connect 139 0 147 0;
#X connect 140 0 147 0;
#X connect 141 0 150 0;
#X connect 142 0 150 0;
#X connect 143 0 153 0;
#X connect 144 0 153 0;
#X connect 145 0 146 0;
#X connect 146 0 154 0;
#X connect 147 0 145 1;
#X connect 148 0 149 0;
#X connect 149 0 154 1;
#X connect 150 0 148 1;
#X connect 151 0 152 0;
#X connect 152 0 155 1;
#X connect 153 0 151 1;
#X connect 154 0 155 0;
#X connect 155 0 157 0;
#X connect 157 0 156 0;
#X connect 158 0 159 0;
#X connect 159 0 233 0;
#X connect 160 0 145 0;
#X connect 161 0 148 0;
#X connect 162 0 151 0;
#X connect 169 0 133 0;
#X connect 170 0 133 0;
#X connect 171 0 133 0;
#X connect 172 0 133 0;
#X connect 173 0 133 0;
#X connect 174 0 133 0;
#X connect 175 0 133 0;
#X connect 176 0 133 0;
#X connect 177 0 133 0;
#X connect 178 0 133 0;
#X connect 179 0 133 0;
#X connect 180 0 133 0;
#X connect 181 0 133 0;
#X connect 182 0 133 0;
#X connect 183 0 133 0;
#X connect 184 0 133 0;
#X connect 185 0 133 0;
#X connect 186 0 190 0;
#X connect 186 0 232 0;
#X connect 187 0 237 0;
#X connect 189 0 25 0;
#X connect 190 0 6 0;
#X connect 191 0 55 0;
#X connect 194 0 243 0;
#X connect 195 0 196 0;
#X connect 197 0 204 0;
#X connect 198 0 36 0;
#X connect 199 0 207 0;
#X connect 200 0 14 0;
#X connect 200 0 16 0;
#X connect 201 0 200 0;
#X connect 202 0 203 0;
#X connect 203 0 15 0;
#X connect 204 0 205 0;
#X connect 205 0 11 0;
#X connect 205 0 206 0;
#X connect 206 0 13 0;
#X connect 207 0 208 0;
#X connect 208 0 42 0;
#X connect 209 0 47 0;
#X connect 209 0 228 0;
#X connect 209 0 251 0;
#X connect 210 0 219 0;
#X connect 211 0 219 0;
#X connect 212 0 219 0;
#X connect 213 0 219 0;
#X connect 214 0 219 0;
#X connect 215 0 219 0;
#X connect 216 0 219 0;
#X connect 217 0 219 0;
#X connect 218 0 219 0;
#X connect 220 0 210 0;
#X connect 221 0 222 0;
#X connect 222 0 7 0;
#X connect 222 0 223 0;
#X connect 223 0 9 0;
#X connect 224 0 26 0;
#X connect 224 0 24 0;
#X connect 224 0 22 0;
#X connect 225 0 4 0;
#X connect 226 0 227 0;
#X connect 227 0 192 0;
#X connect 228 0 229 0;
#X connect 229 0 52 0;
#X connect 230 0 19 0;
#X connect 230 0 193 0;
#X connect 231 0 20 0;
#X connect 232 0 18 0;
#X connect 233 0 234 0;
#X connect 234 0 139 0;
#X connect 234 0 142 0;
#X connect 234 0 144 0;
#X connect 234 1 141 0;
#X connect 234 1 140 0;
#X connect 234 1 144 0;
#X connect 234 2 140 0;
#X connect 234 2 142 0;
#X connect 234 2 143 0;
#X connect 235 0 248 0;
#X connect 235 0 250 0;
#X connect 236 0 57 0;
#X connect 237 0 234 0;
#X connect 244 0 3 0;
#X connect 244 0 226 0;
#X connect 245 0 221 0;
#X connect 245 0 252 0;
#X connect 246 0 202 0;
#X connect 247 0 201 0;
#X connect 249 0 76 0;
#X connect 250 0 234 0;
#X connect 253 0 254 0;
#X connect 253 0 254 1;
#X connect 255 0 253 1;
#X connect 256 0 253 0;
#X connect 257 0 269 0;
#X connect 257 0 259 0;
#X connect 257 0 261 0;
#X connect 258 0 257 0;
#X connect 259 0 255 0;
#X connect 261 0 263 0;
#X connect 262 0 263 1;
#X connect 263 0 271 0;
#X connect 264 0 265 1;
#X connect 265 0 266 0;
#X connect 267 0 268 1;
#X connect 268 0 270 0;
#X connect 269 0 265 0;
#X connect 269 0 268 0;
#X restore 150 141 pd synth_BGmusic;
#X text 285 140 receives from oscTrig to start playing;
#X connect 6 0 10 0;
#X connect 8 0 9 0;
#X connect 10 0 13 0;
#X connect 11 0 10 0;
